<svg xmlns="http://www.w3.org/2000/svg" width="800" height="800" viewBox="0 0 800 800">
  <rect width="800" height="800" rx="160" fill="#0A2540"/>
  <circle cx="640" cy="130" r="260" fill="#67E8F9" opacity=".08"/>
  <circle cx="700" cy="660" r="240" fill="#10B981" opacity=".08"/>
  
    <g transform="translate(285 255) scale(1.55)">
      <line x1="0" y1="0" x2="0" y2="170" stroke="#67E8F9" stroke-width="5" stroke-linecap="round" opacity=".68"/>
      <line x1="150" y1="0" x2="150" y2="170" stroke="#67E8F9" stroke-width="5" stroke-linecap="round" opacity=".68"/>
      <line x1="0" y1="85" x2="150" y2="85" stroke="#10B981" stroke-width="8" stroke-linecap="round"/>
      <line x1="0" y1="0" x2="62" y2="53" stroke="#67E8F9" stroke-width="5" stroke-linecap="round" opacity=".68"/>
      <line x1="62" y1="53" x2="150" y2="0" stroke="#67E8F9" stroke-width="5" stroke-linecap="round" opacity=".68"/>
      <line x1="0" y1="170" x2="62" y2="117" stroke="#67E8F9" stroke-width="5" stroke-linecap="round" opacity=".68"/>
      <line x1="62" y1="117" x2="150" y2="170" stroke="#67E8F9" stroke-width="5" stroke-linecap="round" opacity=".68"/>
      <line x1="0" y1="85" x2="62" y2="53" stroke="#67E8F9" stroke-width="5" stroke-linecap="round" opacity=".68"/>
      <line x1="150" y1="85" x2="62" y2="117" stroke="#67E8F9" stroke-width="5" stroke-linecap="round" opacity=".68"/>
      <circle cx="0" cy="0" r="14" fill="#F8FAFC" stroke="#0A2540" stroke-width="5"/>
      <circle cx="0" cy="85" r="14" fill="#10B981" stroke="#FFFFFF" stroke-width="5"/>
      <circle cx="0" cy="170" r="14" fill="#F8FAFC" stroke="#0A2540" stroke-width="5"/>
      <circle cx="150" cy="0" r="14" fill="#F8FAFC" stroke="#0A2540" stroke-width="5"/>
      <circle cx="150" cy="85" r="14" fill="#10B981" stroke="#FFFFFF" stroke-width="5"/>
      <circle cx="150" cy="170" r="14" fill="#F8FAFC" stroke="#0A2540" stroke-width="5"/>
      <circle cx="62" cy="53" r="11" fill="#67E8F9" stroke="#F8FAFC" stroke-width="4"/>
      <circle cx="62" cy="117" r="11" fill="#67E8F9" stroke="#F8FAFC" stroke-width="4"/>
    </g>
    
</svg>
